<svg width="31" height="42" viewBox="0 0 31 42" fill="none" xmlns="http://www.w3.org/2000/svg">
  <path d="M10.9996 12.0846V12M15.4991 12.0846V12M19.9987 12.0846V12M24.4983 12C24.4983 13.2938 24.2253 14.5238 23.7338 15.6356L24.5 20.9991L19.9039 19.85C18.6019 20.5823 17.0993 21 15.4991 21C10.5291 21 6.5 16.9706 6.5 12C6.5 7.02944 10.5291 3 15.4991 3C20.4692 3 24.4983 7.02944 24.4983 12Z" stroke="currentColor" stroke-width="2" stroke-linecap="round" stroke-linejoin="round"/>
  <path d="M1.16477 30.2727H2.46449V33.1534C2.46449 33.554 2.53409 33.8707 2.6733 34.1037C2.8125 34.3338 3.0142 34.4972 3.27841 34.5938C3.54545 34.6903 3.86932 34.7386 4.25 34.7386C4.4517 34.7386 4.65625 34.7315 4.86364 34.7173C5.07386 34.7003 5.28267 34.6776 5.49006 34.6491C5.69744 34.6179 5.89773 34.5824 6.09091 34.5426C6.28693 34.5 6.46875 34.4531 6.63636 34.402V35.5227C6.47159 35.5767 6.29688 35.625 6.11222 35.6676C5.9304 35.7074 5.74006 35.7429 5.54119 35.7741C5.34233 35.8026 5.13494 35.8253 4.91903 35.8423C4.70313 35.8594 4.48011 35.8679 4.25 35.8679C3.61364 35.8679 3.06392 35.777 2.60085 35.5952C2.14063 35.4105 1.78551 35.1193 1.53551 34.7216C1.28835 34.3239 1.16477 33.8011 1.16477 33.1534V30.2727ZM6.44034 30.2727H7.74432V39H6.44034V30.2727ZM11.57 39.1449C11.1552 39.1449 10.7802 39.0682 10.445 38.9148C10.1097 38.7585 9.84411 38.5327 9.64808 38.2372C9.4549 37.9418 9.35831 37.5795 9.35831 37.1506C9.35831 36.7812 9.42933 36.4773 9.57138 36.2386C9.71342 36 9.90518 35.8111 10.1467 35.6719C10.3881 35.5327 10.658 35.4276 10.9563 35.3565C11.2546 35.2855 11.5586 35.2315 11.8683 35.1946C12.2603 35.1491 12.5785 35.1122 12.8228 35.0838C13.0671 35.0526 13.2447 35.0028 13.3555 34.9347C13.4663 34.8665 13.5217 34.7557 13.5217 34.6023V34.5724C13.5217 34.2003 13.4165 33.9119 13.2063 33.7074C12.9989 33.5028 12.6893 33.4006 12.2773 33.4006C11.8484 33.4006 11.5103 33.4957 11.2631 33.6861C11.0188 33.8736 10.8498 34.0824 10.756 34.3125L9.55859 34.0398C9.70064 33.642 9.90803 33.321 10.1808 33.0767C10.4563 32.8295 10.7731 32.6506 11.131 32.5398C11.489 32.4261 11.8654 32.3693 12.2603 32.3693C12.5217 32.3693 12.7987 32.4006 13.0913 32.4631C13.3867 32.5227 13.6623 32.6335 13.918 32.7955C14.1765 32.9574 14.3881 33.1889 14.5529 33.4901C14.7177 33.7884 14.8001 34.1761 14.8001 34.6534V39H13.5558V38.1051H13.5046C13.4222 38.2699 13.2987 38.4318 13.1339 38.5909C12.9691 38.75 12.7575 38.8821 12.4989 38.9872C12.2404 39.0923 11.9308 39.1449 11.57 39.1449ZM11.8469 38.1222C12.1992 38.1222 12.5004 38.0526 12.7504 37.9134C13.0032 37.7741 13.195 37.5923 13.3256 37.3679C13.4592 37.1406 13.5259 36.8977 13.5259 36.6392V35.7955C13.4805 35.8409 13.3924 35.8835 13.2617 35.9233C13.1339 35.9602 12.9876 35.9929 12.8228 36.0213C12.658 36.0469 12.4975 36.071 12.3413 36.0938C12.185 36.1136 12.0543 36.1307 11.9492 36.1449C11.7021 36.1761 11.4762 36.2287 11.2717 36.3026C11.07 36.3764 10.908 36.483 10.7859 36.6222C10.6665 36.7585 10.6069 36.9403 10.6069 37.1676C10.6069 37.483 10.7234 37.7216 10.9563 37.8835C11.1893 38.0426 11.4862 38.1222 11.8469 38.1222ZM15.6854 33.554V32.4545H21.2081V33.554H19.0732V39H17.8288V33.554H15.6854ZM23.5146 34.7045H25.4151C26.2163 34.7045 26.8327 34.9034 27.2646 35.3011C27.6964 35.6989 27.9123 36.2116 27.9123 36.8395C27.9123 37.2486 27.8157 37.6165 27.6225 37.9432C27.4293 38.2699 27.1467 38.5284 26.7745 38.7188C26.4023 38.9062 25.9492 39 25.4151 39H22.5558V32.4545H23.8043V37.9006H25.4151C25.7816 37.9006 26.0827 37.8054 26.3185 37.6151C26.5543 37.4219 26.6722 37.1761 26.6722 36.8778C26.6722 36.5625 26.5543 36.3054 26.3185 36.1065C26.0827 35.9048 25.7816 35.804 25.4151 35.804H23.5146V34.7045ZM28.8413 39V32.4545H30.1154V39H28.8413Z" fill="currentColor"/>
</svg>
