<svg width="20" height="20" viewBox="0 0 20 20" fill="none" xmlns="http://www.w3.org/2000/svg">
<path d="M12.966 12.6656C13.4026 12.8111 13.8745 12.5751 14.0201 12.1385C14.1656 11.7019 13.9296 11.23 13.493 11.0844L12.966 12.6656ZM10.417 10.9375H9.58366C9.58366 11.2962 9.81318 11.6146 10.1535 11.7281L10.417 10.9375ZM11.2503 7.01739C11.2503 6.55715 10.8772 6.18406 10.417 6.18406C9.95675 6.18406 9.58366 6.55715 9.58366 7.01739H11.2503ZM13.2295 11.875L13.493 11.0844L10.6805 10.1469L10.417 10.9375L10.1535 11.7281L12.966 12.6656L13.2295 11.875ZM10.417 10.9375H11.2503V7.01739H10.417H9.58366V10.9375H10.417ZM17.917 10H17.0837C17.0837 13.6819 14.0989 16.6667 10.417 16.6667V17.5V18.3333C15.0194 18.3333 18.7503 14.6024 18.7503 10H17.917ZM10.417 17.5V16.6667C6.73509 16.6667 3.75033 13.6819 3.75033 10H2.91699H2.08366C2.08366 14.6024 5.81462 18.3333 10.417 18.3333V17.5ZM2.91699 10H3.75033C3.75033 6.3181 6.73509 3.33333 10.417 3.33333V2.5V1.66667C5.81462 1.66667 2.08366 5.39763 2.08366 10H2.91699ZM10.417 2.5V3.33333C14.0989 3.33333 17.0837 6.3181 17.0837 10H17.917H18.7503C18.7503 5.39763 15.0194 1.66667 10.417 1.66667V2.5Z" fill="#828282"/>
</svg>
