<svg width="49" height="42" viewBox="0 0 49 42" fill="currentColor" xmlns="http://www.w3.org/2000/svg">
<path d="M20 17.0625H29M23.8046 3.21117L16.0046 8.48603C15.688 8.7001 15.5 9.04666 15.5 9.41605V19.2882C15.5 20.2336 16.3059 21 17.3 21H31.7C32.6941 21 33.5 20.2336 33.5 19.2882V9.41605C33.5 9.04665 33.312 8.7001 32.9954 8.48603L25.1954 3.21117C24.7791 2.92961 24.2209 2.92961 23.8046 3.21117Z" stroke="#828282" stroke-width="2" stroke-linecap="round" stroke-linejoin="round"/>
<path d="M6.72479 30.2727V31.4062H2.59979V39H1.28303V30.2727H6.72479ZM7.59091 39L7.58665 37.8963H7.82102C8.00284 37.8963 8.15483 37.858 8.27699 37.7812C8.40199 37.7017 8.50426 37.5682 8.58381 37.3807C8.66335 37.1932 8.72443 36.9347 8.76705 36.6051C8.80966 36.2727 8.84091 35.8551 8.8608 35.3523L8.97585 32.4545H13.544V39H12.2955V33.554H10.1562L10.054 35.7784C10.0284 36.3182 9.97301 36.7898 9.88778 37.1932C9.8054 37.5966 9.68466 37.9332 9.52557 38.2031C9.36648 38.4702 9.16193 38.6705 8.91193 38.804C8.66193 38.9347 8.35795 39 8 39H7.59091ZM17.1481 39.1449C16.7333 39.1449 16.3583 39.0682 16.0231 38.9148C15.6879 38.7585 15.4222 38.5327 15.2262 38.2372C15.033 37.9418 14.9364 37.5795 14.9364 37.1506C14.9364 36.7812 15.0075 36.4773 15.1495 36.2386C15.2915 36 15.4833 35.8111 15.7248 35.6719C15.9663 35.5327 16.2362 35.4276 16.5344 35.3565C16.8327 35.2855 17.1367 35.2315 17.4464 35.1946C17.8384 35.1491 18.1566 35.1122 18.4009 35.0838C18.6452 35.0526 18.8228 35.0028 18.9336 34.9347C19.0444 34.8665 19.0998 34.7557 19.0998 34.6023V34.5724C19.0998 34.2003 18.9947 33.9119 18.7844 33.7074C18.5771 33.5028 18.2674 33.4006 17.8555 33.4006C17.4265 33.4006 17.0884 33.4957 16.8413 33.6861C16.5969 33.8736 16.4279 34.0824 16.3342 34.3125L15.1367 34.0398C15.2788 33.642 15.4862 33.321 15.7589 33.0767C16.0344 32.8295 16.3512 32.6506 16.7092 32.5398C17.0671 32.4261 17.4435 32.3693 17.8384 32.3693C18.0998 32.3693 18.3768 32.4006 18.6694 32.4631C18.9648 32.5227 19.2404 32.6335 19.4961 32.7955C19.7546 32.9574 19.9663 33.1889 20.131 33.4901C20.2958 33.7884 20.3782 34.1761 20.3782 34.6534V39H19.1339V38.1051H19.0827C19.0004 38.2699 18.8768 38.4318 18.712 38.5909C18.5472 38.75 18.3356 38.8821 18.0771 38.9872C17.8185 39.0923 17.5089 39.1449 17.1481 39.1449ZM17.4251 38.1222C17.7773 38.1222 18.0785 38.0526 18.3285 37.9134C18.5813 37.7741 18.7731 37.5923 18.9038 37.3679C19.0373 37.1406 19.104 36.8977 19.104 36.6392V35.7955C19.0586 35.8409 18.9705 35.8835 18.8398 35.9233C18.712 35.9602 18.5657 35.9929 18.4009 36.0213C18.2362 36.0469 18.0756 36.071 17.9194 36.0938C17.7631 36.1136 17.6325 36.1307 17.5273 36.1449C17.2802 36.1761 17.0543 36.2287 16.8498 36.3026C16.6481 36.3764 16.4862 36.483 16.364 36.6222C16.2447 36.7585 16.185 36.9403 16.185 37.1676C16.185 37.483 16.3015 37.7216 16.5344 37.8835C16.7674 38.0426 17.0643 38.1222 17.4251 38.1222ZM22.0753 39V32.4545H24.7898C25.5284 32.4545 26.1136 32.6122 26.5455 32.9276C26.9773 33.2401 27.1932 33.6648 27.1932 34.2017C27.1932 34.5852 27.071 34.8892 26.8267 35.1136C26.5824 35.3381 26.2585 35.4886 25.8551 35.5653C26.1477 35.5994 26.4162 35.6875 26.6605 35.8295C26.9048 35.9687 27.1009 36.1562 27.2486 36.392C27.3991 36.6278 27.4744 36.9091 27.4744 37.2358C27.4744 37.5824 27.3849 37.8892 27.206 38.1562C27.027 38.4205 26.767 38.6278 26.4261 38.7784C26.0881 38.9261 25.6804 39 25.2031 39H22.0753ZM23.2727 37.9347H25.2031C25.5185 37.9347 25.7656 37.8594 25.9446 37.7088C26.1236 37.5582 26.2131 37.3537 26.2131 37.0952C26.2131 36.7912 26.1236 36.5526 25.9446 36.3793C25.7656 36.2031 25.5185 36.1151 25.2031 36.1151H23.2727V37.9347ZM23.2727 35.1818H24.8026C25.0412 35.1818 25.2457 35.1477 25.4162 35.0795C25.5895 35.0114 25.7216 34.9148 25.8125 34.7898C25.9062 34.6619 25.9531 34.5114 25.9531 34.3381C25.9531 34.0852 25.8494 33.8878 25.642 33.7457C25.4347 33.6037 25.1506 33.5327 24.7898 33.5327H23.2727V35.1818ZM33.3082 35.1776V36.2812H29.7628V35.1776H33.3082ZM30.1207 32.4545V39H28.8722V32.4545H30.1207ZM34.1989 32.4545V39H32.9545V32.4545H34.1989ZM37.8082 39.1449C37.3935 39.1449 37.0185 39.0682 36.6832 38.9148C36.348 38.7585 36.0824 38.5327 35.8864 38.2372C35.6932 37.9418 35.5966 37.5795 35.5966 37.1506C35.5966 36.7812 35.6676 36.4773 35.8097 36.2386C35.9517 36 36.1435 35.8111 36.3849 35.6719C36.6264 35.5327 36.8963 35.4276 37.1946 35.3565C37.4929 35.2855 37.7969 35.2315 38.1065 35.1946C38.4986 35.1491 38.8168 35.1122 39.0611 35.0838C39.3054 35.0526 39.483 35.0028 39.5938 34.9347C39.7045 34.8665 39.7599 34.7557 39.7599 34.6023V34.5724C39.7599 34.2003 39.6548 33.9119 39.4446 33.7074C39.2372 33.5028 38.9276 33.4006 38.5156 33.4006C38.0866 33.4006 37.7486 33.4957 37.5014 33.6861C37.2571 33.8736 37.0881 34.0824 36.9943 34.3125L35.7969 34.0398C35.9389 33.642 36.1463 33.321 36.419 33.0767C36.6946 32.8295 37.0114 32.6506 37.3693 32.5398C37.7273 32.4261 38.1037 32.3693 38.4986 32.3693C38.7599 32.3693 39.0369 32.4006 39.3295 32.4631C39.625 32.5227 39.9006 32.6335 40.1562 32.7955C40.4148 32.9574 40.6264 33.1889 40.7912 33.4901C40.956 33.7884 41.0384 34.1761 41.0384 34.6534V39H39.794V38.1051H39.7429C39.6605 38.2699 39.5369 38.4318 39.3722 38.5909C39.2074 38.75 38.9957 38.8821 38.7372 38.9872C38.4787 39.0923 38.169 39.1449 37.8082 39.1449ZM38.0852 38.1222C38.4375 38.1222 38.7386 38.0526 38.9886 37.9134C39.2415 37.7741 39.4332 37.5923 39.5639 37.3679C39.6974 37.1406 39.7642 36.8977 39.7642 36.6392V35.7955C39.7188 35.8409 39.6307 35.8835 39.5 35.9233C39.3722 35.9602 39.2259 35.9929 39.0611 36.0213C38.8963 36.0469 38.7358 36.071 38.5795 36.0938C38.4233 36.1136 38.2926 36.1307 38.1875 36.1449C37.9403 36.1761 37.7145 36.2287 37.5099 36.3026C37.3082 36.3764 37.1463 36.483 37.0241 36.6222C36.9048 36.7585 36.8452 36.9403 36.8452 37.1676C36.8452 37.483 36.9616 37.7216 37.1946 37.8835C37.4276 38.0426 37.7244 38.1222 38.0852 38.1222ZM46.6388 39V33.5412H45.0707C44.6985 33.5412 44.4087 33.6278 44.2013 33.8011C43.994 33.9744 43.8903 34.2017 43.8903 34.483C43.8903 34.7614 43.9854 34.9858 44.1758 35.1562C44.369 35.3239 44.6388 35.4077 44.9854 35.4077H47.0096V36.4389H44.9854C44.5025 36.4389 44.0849 36.3594 43.7326 36.2003C43.3832 36.0384 43.1133 35.8097 42.9229 35.5142C42.7354 35.2187 42.6417 34.8693 42.6417 34.4659C42.6417 34.054 42.7383 33.6989 42.9315 33.4006C43.1275 33.0994 43.4073 32.8665 43.771 32.7017C44.1374 32.5369 44.5707 32.4545 45.0707 32.4545H47.8363V39H46.6388ZM42.3434 39L44.1886 35.6932H45.4925L43.6474 39H42.3434Z" fill="currentColor"/>
</svg>
