<svg width="24" height="24" viewBox="0 0 24 24" fill="none" xmlns="http://www.w3.org/2000/svg">
<path d="M11.9996 7.20002C10.6741 7.20002 9.59961 6.12551 9.59961 4.80002C9.59961 3.47454 10.6741 2.40002 11.9996 2.40002C13.3251 2.40002 14.3996 3.47454 14.3996 4.80002C14.3996 6.12551 13.3251 7.20002 11.9996 7.20002Z" stroke="#1C1C1C" stroke-width="2"/>
<path d="M11.9996 14.4C10.6741 14.4 9.59961 13.3255 9.59961 12C9.59961 10.6745 10.6741 9.60002 11.9996 9.60002C13.3251 9.60002 14.3996 10.6745 14.3996 12C14.3996 13.3255 13.3251 14.4 11.9996 14.4Z" stroke="#1C1C1C" stroke-width="2"/>
<path d="M11.9996 21.6C10.6741 21.6 9.59961 20.5255 9.59961 19.2C9.59961 17.8745 10.6741 16.8 11.9996 16.8C13.3251 16.8 14.3996 17.8745 14.3996 19.2C14.3996 20.5255 13.3251 21.6 11.9996 21.6Z" stroke="#1C1C1C" stroke-width="2"/>
</svg>
