<svg width="32" height="32" viewBox="0 0 32 32" fill="none" xmlns="http://www.w3.org/2000/svg">
<path d="M8.47059 27.8431L21.1373 15.9216L27.098 21.8823M8.47059 27.8431H23.3725C25.8416 27.8431 27.8431 25.8416 27.8431 23.3725V14.4314M8.47059 27.8431C6.00155 27.8431 4 25.8416 4 23.3725V8.47059C4 6.00155 6.00155 4 8.47059 4H18.1569M29.3333 9.96078L26.3529 6.98039M26.3529 6.98039L23.3725 4M26.3529 6.98039L23.3725 9.96078M26.3529 6.98039L29.3333 4M12.9412 10.7059C12.9412 11.9404 11.9404 12.9412 10.7059 12.9412C9.47136 12.9412 8.47059 11.9404 8.47059 10.7059C8.47059 9.47136 9.47136 8.47059 10.7059 8.47059C11.9404 8.47059 12.9412 9.47136 12.9412 10.7059Z" stroke="#1C1C1C" stroke-opacity="0.5" stroke-width="2.66667" stroke-linecap="round" stroke-linejoin="round"/>
</svg>
