<svg width="60" height="60" viewBox="0 0 60 60" fill="none" xmlns="http://www.w3.org/2000/svg">
<path d="M51.6586 46.9275C51.6586 46.9275 48.7619 49.7726 48.052 50.6067C46.8957 51.8406 45.5332 52.4234 43.7471 52.4234C43.5754 52.4234 43.3922 52.4234 43.2205 52.4119C39.82 52.1948 36.6601 50.8695 34.2901 49.7383C27.8098 46.6076 22.1195 42.163 17.391 36.53C13.4868 31.834 10.8764 27.4922 9.14752 22.8304C8.08274 19.9854 7.69346 17.7688 7.8652 15.6778C7.97969 14.341 8.49491 13.2327 9.4452 12.2844L13.3494 8.38814C13.9104 7.86255 14.5058 7.5769 15.0897 7.5769C15.811 7.5769 16.3949 8.01109 16.7613 8.37671C16.7727 8.38814 16.7842 8.39957 16.7956 8.41099C17.494 9.06227 18.1581 9.73639 18.8565 10.4562C19.2114 10.8218 19.5778 11.1875 19.9442 11.5645L23.0698 14.6838C24.2834 15.8949 24.2834 17.0147 23.0698 18.2258C22.7378 18.5571 22.4172 18.8885 22.0852 19.2084C21.1234 20.191 21.8789 19.4371 20.8828 20.3283C20.8599 20.3512 20.837 20.3626 20.8256 20.3854C19.841 21.3681 20.0241 22.3278 20.2302 22.9791C20.2417 23.0134 20.2531 23.0477 20.2646 23.0819C21.0775 25.0472 22.2224 26.8982 23.9627 29.1034L23.9741 29.1148C27.1341 32.9996 30.4659 36.0274 34.1411 38.3469C34.6105 38.6439 35.0914 38.8839 35.5493 39.1124C35.9615 39.3181 36.3508 39.5123 36.6828 39.718C36.7286 39.7408 36.7744 39.7751 36.8202 39.7979C37.2095 39.9922 37.5758 40.0836 37.9537 40.0836C38.9039 40.0836 39.4993 39.4894 39.694 39.2952L41.9382 37.0556C42.3274 36.6671 42.9457 36.1987 43.667 36.1987C44.3768 36.1987 44.9608 36.6443 45.3157 37.0327C45.3271 37.0442 45.3271 37.0442 45.3386 37.0556L51.6471 43.3512C52.8264 44.5167 51.6586 46.9275 51.6586 46.9275Z" stroke="#1C1C1C" stroke-opacity="0.5" stroke-width="5" stroke-linecap="round" stroke-linejoin="round"/>
<path d="M49 10L9 50" stroke="#626262" stroke-width="5" stroke-linecap="round"/>
</svg>
