<svg width="67" height="42" viewBox="0 0 67 42" fill="none" xmlns="http://www.w3.org/2000/svg">
  <path d="M29.9375 7.15385V4.38462C29.9375 3.61991 30.4692 3 31.125 3H35.2812C35.9371 3 36.4688 3.61991 36.4688 4.38462V7.15385M26.375 21H40.625C41.9367 21 43 19.7602 43 18.2308V9.92308C43 8.39367 41.9367 7.15385 40.625 7.15385H26.375C25.0633 7.15385 24 8.39367 24 9.92308V18.2308C24 19.7602 25.0633 21 26.375 21Z" stroke="currentColor" stroke-width="2" stroke-linecap="round"/>
  <path d="M7.94141 30.2727V39H6.62891V31.3977H2.52095V39H1.20845V30.2727H7.94141ZM12.6097 39.1321C11.9961 39.1321 11.4606 38.9915 11.0032 38.7102C10.5458 38.429 10.1907 38.0355 9.93786 37.5298C9.68501 37.0241 9.55859 36.4332 9.55859 35.7571C9.55859 35.0781 9.68501 34.4844 9.93786 33.9759C10.1907 33.4673 10.5458 33.0724 11.0032 32.7912C11.4606 32.5099 11.9961 32.3693 12.6097 32.3693C13.2234 32.3693 13.7589 32.5099 14.2163 32.7912C14.6737 33.0724 15.0288 33.4673 15.2816 33.9759C15.5344 34.4844 15.6609 35.0781 15.6609 35.7571C15.6609 36.4332 15.5344 37.0241 15.2816 37.5298C15.0288 38.0355 14.6737 38.429 14.2163 38.7102C13.7589 38.9915 13.2234 39.1321 12.6097 39.1321ZM12.614 38.0625C13.0117 38.0625 13.3413 37.9574 13.6026 37.7472C13.864 37.5369 14.0572 37.2571 14.1822 36.9077C14.31 36.5582 14.3739 36.1733 14.3739 35.7528C14.3739 35.3352 14.31 34.9517 14.1822 34.6023C14.0572 34.25 13.864 33.9673 13.6026 33.7543C13.3413 33.5412 13.0117 33.4347 12.614 33.4347C12.2134 33.4347 11.881 33.5412 11.6168 33.7543C11.3555 33.9673 11.1609 34.25 11.033 34.6023C10.908 34.9517 10.8455 35.3352 10.8455 35.7528C10.8455 36.1733 10.908 36.5582 11.033 36.9077C11.1609 37.2571 11.3555 37.5369 11.6168 37.7472C11.881 37.9574 12.2134 38.0625 12.614 38.0625ZM17.0831 41.4545V32.4545H18.3274V33.5156H18.4339C18.5078 33.3793 18.6143 33.2216 18.7536 33.0426C18.8928 32.8636 19.0859 32.7074 19.3331 32.5739C19.5803 32.4375 19.907 32.3693 20.3132 32.3693C20.8416 32.3693 21.3132 32.5028 21.728 32.7699C22.1428 33.0369 22.468 33.4219 22.7038 33.9247C22.9425 34.4276 23.0618 35.0327 23.0618 35.7401C23.0618 36.4474 22.9439 37.054 22.7081 37.5597C22.4723 38.0625 22.1484 38.4503 21.7365 38.723C21.3246 38.9929 20.8544 39.1278 20.326 39.1278C19.9283 39.1278 19.603 39.0611 19.3501 38.9276C19.1001 38.794 18.9041 38.6378 18.7621 38.4588C18.62 38.2798 18.5107 38.1207 18.4339 37.9815H18.3572V41.4545H17.0831ZM18.3317 35.7273C18.3317 36.1875 18.3984 36.5909 18.532 36.9375C18.6655 37.2841 18.8587 37.5554 19.1115 37.7514C19.3643 37.9446 19.674 38.0412 20.0405 38.0412C20.4212 38.0412 20.7393 37.9403 20.995 37.7386C21.2507 37.5341 21.4439 37.2571 21.5746 36.9077C21.7081 36.5582 21.7749 36.1648 21.7749 35.7273C21.7749 35.2955 21.7095 34.9077 21.5788 34.5639C21.451 34.2202 21.2578 33.9489 20.9993 33.75C20.7436 33.5511 20.424 33.4517 20.0405 33.4517C19.6712 33.4517 19.3587 33.5469 19.103 33.7372C18.8501 33.9276 18.6584 34.1932 18.5277 34.5341C18.397 34.875 18.3317 35.2727 18.3317 35.7273ZM23.701 33.554V32.4545H29.2237V33.554H27.0888V39H25.8445V33.554H23.701ZM33.0835 41.2287V30.2727H34.3576V41.2287H33.0835ZM33.0835 39.1321C32.6204 39.1321 32.1985 39.0526 31.8178 38.8935C31.4371 38.7315 31.109 38.5014 30.8335 38.2031C30.5579 37.9048 30.3448 37.5483 30.1942 37.1335C30.0465 36.7187 29.9727 36.2599 29.9727 35.7571C29.9727 35.2486 30.0465 34.7869 30.1942 34.3722C30.3448 33.9574 30.5579 33.6009 30.8335 33.3026C31.109 33.0043 31.4371 32.7741 31.8178 32.6122C32.1985 32.4503 32.6204 32.3693 33.0835 32.3693H33.3988V39.1321H33.0835ZM33.0835 38.0582H33.2624V33.4432H33.0835C32.7766 33.4432 32.5096 33.5057 32.2823 33.6307C32.055 33.7528 31.8661 33.9219 31.7156 34.1378C31.565 34.3509 31.4513 34.5966 31.3746 34.875C31.3008 35.1534 31.2638 35.4474 31.2638 35.7571C31.2638 36.1719 31.3306 36.554 31.4641 36.9034C31.5977 37.25 31.7994 37.5298 32.0692 37.7429C32.3391 37.9531 32.6772 38.0582 33.0835 38.0582ZM34.3576 39.1321H34.038V32.3693H34.3576C34.8207 32.3693 35.2425 32.4503 35.6232 32.6122C36.0039 32.7741 36.3306 33.0043 36.6033 33.3026C36.8789 33.6009 37.0906 33.9574 37.2383 34.3722C37.3888 34.7869 37.4641 35.2486 37.4641 35.7571C37.4641 36.2599 37.3888 36.7187 37.2383 37.1335C37.0906 37.5483 36.8789 37.9048 36.6033 38.2031C36.3306 38.5014 36.0039 38.7315 35.6232 38.8935C35.2425 39.0526 34.8207 39.1321 34.3576 39.1321ZM34.3576 38.0582C34.6644 38.0582 34.9315 37.9986 35.1587 37.8793C35.386 37.7571 35.5749 37.5895 35.7255 37.3764C35.8761 37.1605 35.9883 36.9148 36.0621 36.6392C36.136 36.3608 36.1729 36.0668 36.1729 35.7571C36.1729 35.3452 36.1062 34.9645 35.9727 34.6151C35.842 34.2628 35.6417 33.9801 35.3718 33.767C35.1019 33.5511 34.7638 33.4432 34.3576 33.4432H34.1744V38.0582H34.3576ZM41.6371 39.1321C41.0234 39.1321 40.4879 38.9915 40.0305 38.7102C39.5732 38.429 39.218 38.0355 38.9652 37.5298C38.7124 37.0241 38.5859 36.4332 38.5859 35.7571C38.5859 35.0781 38.7124 34.4844 38.9652 33.9759C39.218 33.4673 39.5732 33.0724 40.0305 32.7912C40.4879 32.5099 41.0234 32.3693 41.6371 32.3693C42.2507 32.3693 42.7862 32.5099 43.2436 32.7912C43.701 33.0724 44.0561 33.4673 44.3089 33.9759C44.5618 34.4844 44.6882 35.0781 44.6882 35.7571C44.6882 36.4332 44.5618 37.0241 44.3089 37.5298C44.0561 38.0355 43.701 38.429 43.2436 38.7102C42.7862 38.9915 42.2507 39.1321 41.6371 39.1321ZM41.6413 38.0625C42.0391 38.0625 42.3686 37.9574 42.63 37.7472C42.8913 37.5369 43.0845 37.2571 43.2095 36.9077C43.3374 36.5582 43.4013 36.1733 43.4013 35.7528C43.4013 35.3352 43.3374 34.9517 43.2095 34.6023C43.0845 34.25 42.8913 33.9673 42.63 33.7543C42.3686 33.5412 42.0391 33.4347 41.6413 33.4347C41.2408 33.4347 40.9084 33.5412 40.6442 33.7543C40.3828 33.9673 40.1882 34.25 40.0604 34.6023C39.9354 34.9517 39.8729 35.3352 39.8729 35.7528C39.8729 36.1733 39.9354 36.5582 40.0604 36.9077C40.1882 37.2571 40.3828 37.5369 40.6442 37.7472C40.9084 37.9574 41.2408 38.0625 41.6413 38.0625ZM45.5948 39L45.5906 37.8963H45.8249C46.0067 37.8963 46.1587 37.858 46.2809 37.7812C46.4059 37.7017 46.5082 37.5682 46.5877 37.3807C46.6673 37.1932 46.7283 36.9347 46.771 36.6051C46.8136 36.2727 46.8448 35.8551 46.8647 35.3523L46.9798 32.4545H51.5479V39H50.2994V33.554H48.1602L48.0579 35.7784C48.0323 36.3182 47.9769 36.7898 47.8917 37.1932C47.8093 37.5966 47.6886 37.9332 47.5295 38.2031C47.3704 38.4702 47.1658 38.6705 46.9158 38.804C46.6658 38.9347 46.3619 39 46.0039 39H45.5948ZM54.4957 37.2145L57.3807 32.4545H58.7528V39H57.5043V34.2358L54.6321 39H53.2472V32.4545H54.4957V37.2145ZM63.223 39.1321C62.6094 39.1321 62.0739 38.9915 61.6165 38.7102C61.1591 38.429 60.804 38.0355 60.5511 37.5298C60.2983 37.0241 60.1719 36.4332 60.1719 35.7571C60.1719 35.0781 60.2983 34.4844 60.5511 33.9759C60.804 33.4673 61.1591 33.0724 61.6165 32.7912C62.0739 32.5099 62.6094 32.3693 63.223 32.3693C63.8366 32.3693 64.3722 32.5099 64.8295 32.7912C65.2869 33.0724 65.642 33.4673 65.8949 33.9759C66.1477 34.4844 66.2741 35.0781 66.2741 35.7571C66.2741 36.4332 66.1477 37.0241 65.8949 37.5298C65.642 38.0355 65.2869 38.429 64.8295 38.7102C64.3722 38.9915 63.8366 39.1321 63.223 39.1321ZM63.2273 38.0625C63.625 38.0625 63.9545 37.9574 64.2159 37.7472C64.4773 37.5369 64.6705 37.2571 64.7955 36.9077C64.9233 36.5582 64.9872 36.1733 64.9872 35.7528C64.9872 35.3352 64.9233 34.9517 64.7955 34.6023C64.6705 34.25 64.4773 33.9673 64.2159 33.7543C63.9545 33.5412 63.625 33.4347 63.2273 33.4347C62.8267 33.4347 62.4943 33.5412 62.2301 33.7543C61.9688 33.9673 61.7741 34.25 61.6463 34.6023C61.5213 34.9517 61.4588 35.3352 61.4588 35.7528C61.4588 36.1733 61.5213 36.5582 61.6463 36.9077C61.7741 37.2571 61.9688 37.5369 62.2301 37.7472C62.4943 37.9574 62.8267 38.0625 63.2273 38.0625Z" fill="currentColor"/>
</svg>
