<svg width="54" height="42" viewBox="0 0 54 42" fill="none" xmlns="http://www.w3.org/2000/svg">
  <path d="M17.3999 20.5123C17.3999 16.7368 20.5542 13.6761 26.9999 13.6761C33.4456 13.6761 36.5999 16.7368 36.5999 20.5123C36.5999 21.113 36.1617 21.5999 35.6211 21.5999H18.3787C17.8381 21.5999 17.3999 21.113 17.3999 20.5123Z" stroke="currentColor" stroke-width="2"/>
  <path d="M30.5999 5.9999C30.5999 7.98813 28.9881 9.5999 26.9999 9.5999C25.0117 9.5999 23.3999 7.98813 23.3999 5.9999C23.3999 4.01168 25.0117 2.3999 26.9999 2.3999C28.9881 2.3999 30.5999 4.01168 30.5999 5.9999Z" stroke="currentColor" stroke-width="2"/>
  <path d="M8.16797 30.2727V39H6.85547V31.3977H2.74751V39H1.43501V30.2727H8.16797ZM10.0792 41.4545V32.4545H11.3235V33.5156H11.43C11.5039 33.3793 11.6104 33.2216 11.7496 33.0426C11.8888 32.8636 12.082 32.7074 12.3292 32.5739C12.5763 32.4375 12.9031 32.3693 13.3093 32.3693C13.8377 32.3693 14.3093 32.5028 14.7241 32.7699C15.1388 33.0369 15.4641 33.4219 15.6999 33.9247C15.9386 34.4276 16.0579 35.0327 16.0579 35.7401C16.0579 36.4474 15.94 37.054 15.7042 37.5597C15.4684 38.0625 15.1445 38.4503 14.7326 38.723C14.3207 38.9929 13.8505 39.1278 13.3221 39.1278C12.9244 39.1278 12.5991 39.0611 12.3462 38.9276C12.0962 38.794 11.9002 38.6378 11.7582 38.4588C11.6161 38.2798 11.5067 38.1207 11.43 37.9815H11.3533V41.4545H10.0792ZM11.3278 35.7273C11.3278 36.1875 11.3945 36.5909 11.5281 36.9375C11.6616 37.2841 11.8548 37.5554 12.1076 37.7514C12.3604 37.9446 12.6701 38.0412 13.0366 38.0412C13.4173 38.0412 13.7354 37.9403 13.9911 37.7386C14.2468 37.5341 14.44 37.2571 14.5707 36.9077C14.7042 36.5582 14.771 36.1648 14.771 35.7273C14.771 35.2955 14.7056 34.9077 14.5749 34.5639C14.4471 34.2202 14.2539 33.9489 13.9954 33.75C13.7397 33.5511 13.4201 33.4517 13.0366 33.4517C12.6673 33.4517 12.3548 33.5469 12.0991 33.7372C11.8462 33.9276 11.6545 34.1932 11.5238 34.5341C11.3931 34.875 11.3278 35.2727 11.3278 35.7273ZM20.2425 39.1321C19.6289 39.1321 19.0934 38.9915 18.636 38.7102C18.1786 38.429 17.8235 38.0355 17.5707 37.5298C17.3178 37.0241 17.1914 36.4332 17.1914 35.7571C17.1914 35.0781 17.3178 34.4844 17.5707 33.9759C17.8235 33.4673 18.1786 33.0724 18.636 32.7912C19.0934 32.5099 19.6289 32.3693 20.2425 32.3693C20.8562 32.3693 21.3917 32.5099 21.8491 32.7912C22.3065 33.0724 22.6616 33.4673 22.9144 33.9759C23.1673 34.4844 23.2937 35.0781 23.2937 35.7571C23.2937 36.4332 23.1673 37.0241 22.9144 37.5298C22.6616 38.0355 22.3065 38.429 21.8491 38.7102C21.3917 38.9915 20.8562 39.1321 20.2425 39.1321ZM20.2468 38.0625C20.6445 38.0625 20.9741 37.9574 21.2354 37.7472C21.4968 37.5369 21.69 37.2571 21.815 36.9077C21.9428 36.5582 22.0067 36.1733 22.0067 35.7528C22.0067 35.3352 21.9428 34.9517 21.815 34.6023C21.69 34.25 21.4968 33.9673 21.2354 33.7543C20.9741 33.5412 20.6445 33.4347 20.2468 33.4347C19.8462 33.4347 19.5138 33.5412 19.2496 33.7543C18.9883 33.9673 18.7937 34.25 18.6658 34.6023C18.5408 34.9517 18.4783 35.3352 18.4783 35.7528C18.4783 36.1733 18.5408 36.5582 18.6658 36.9077C18.7937 37.2571 18.9883 37.5369 19.2496 37.7472C19.5138 37.9574 19.8462 38.0625 20.2468 38.0625ZM27.5327 41.2287V30.2727H28.8068V41.2287H27.5327ZM27.5327 39.1321C27.0696 39.1321 26.6477 39.0526 26.267 38.8935C25.8864 38.7315 25.5582 38.5014 25.2827 38.2031C25.0071 37.9048 24.794 37.5483 24.6435 37.1335C24.4957 36.7187 24.4219 36.2599 24.4219 35.7571C24.4219 35.2486 24.4957 34.7869 24.6435 34.3722C24.794 33.9574 25.0071 33.6009 25.2827 33.3026C25.5582 33.0043 25.8864 32.7741 26.267 32.6122C26.6477 32.4503 27.0696 32.3693 27.5327 32.3693H27.848V39.1321H27.5327ZM27.5327 38.0582H27.7116V33.4432H27.5327C27.2259 33.4432 26.9588 33.5057 26.7315 33.6307C26.5043 33.7528 26.3153 33.9219 26.1648 34.1378C26.0142 34.3509 25.9006 34.5966 25.8239 34.875C25.75 35.1534 25.7131 35.4474 25.7131 35.7571C25.7131 36.1719 25.7798 36.554 25.9134 36.9034C26.0469 37.25 26.2486 37.5298 26.5185 37.7429C26.7884 37.9531 27.1264 38.0582 27.5327 38.0582ZM28.8068 39.1321H28.4872V32.3693H28.8068C29.2699 32.3693 29.6918 32.4503 30.0724 32.6122C30.4531 32.7741 30.7798 33.0043 31.0526 33.3026C31.3281 33.6009 31.5398 33.9574 31.6875 34.3722C31.8381 34.7869 31.9134 35.2486 31.9134 35.7571C31.9134 36.2599 31.8381 36.7187 31.6875 37.1335C31.5398 37.5483 31.3281 37.9048 31.0526 38.2031C30.7798 38.5014 30.4531 38.7315 30.0724 38.8935C29.6918 39.0526 29.2699 39.1321 28.8068 39.1321ZM28.8068 38.0582C29.1136 38.0582 29.3807 37.9986 29.608 37.8793C29.8352 37.7571 30.0241 37.5895 30.1747 37.3764C30.3253 37.1605 30.4375 36.9148 30.5114 36.6392C30.5852 36.3608 30.6222 36.0668 30.6222 35.7571C30.6222 35.3452 30.5554 34.9645 30.4219 34.6151C30.2912 34.2628 30.0909 33.9801 29.821 33.767C29.5511 33.5511 29.2131 33.4432 28.8068 33.4432H28.6236V38.0582H28.8068ZM34.5778 37.2145L37.4627 32.4545H38.8349V39H37.5863V34.2358L34.7141 39H33.3292V32.4545H34.5778V37.2145ZM40.0323 39L40.0281 37.8963H40.2624C40.4442 37.8963 40.5962 37.858 40.7184 37.7812C40.8434 37.7017 40.9457 37.5682 41.0252 37.3807C41.1048 37.1932 41.1658 36.9347 41.2085 36.6051C41.2511 36.2727 41.2823 35.8551 41.3022 35.3523L41.4173 32.4545H45.9854V39H44.7369V33.554H42.5977L42.4954 35.7784C42.4698 36.3182 42.4144 36.7898 42.3292 37.1932C42.2468 37.5966 42.1261 37.9332 41.967 38.2031C41.8079 38.4702 41.6033 38.6705 41.3533 38.804C41.1033 38.9347 40.7994 39 40.4414 39H40.0323ZM48.6435 34.7045H50.544C51.3452 34.7045 51.9616 34.9034 52.3935 35.3011C52.8253 35.6989 53.0412 36.2116 53.0412 36.8395C53.0412 37.2486 52.9446 37.6165 52.7514 37.9432C52.5582 38.2699 52.2756 38.5284 51.9034 38.7188C51.5313 38.9062 51.0781 39 50.544 39H47.6847V32.4545H48.9332V37.9006H50.544C50.9105 37.9006 51.2116 37.8054 51.4474 37.6151C51.6832 37.4219 51.8011 37.1761 51.8011 36.8778C51.8011 36.5625 51.6832 36.3054 51.4474 36.1065C51.2116 35.9048 50.9105 35.804 50.544 35.804H48.6435V34.7045Z" fill="currentColor"/>
</svg>
