<svg width="24" height="24" viewBox="0 0 24 24" fill="none" xmlns="http://www.w3.org/2000/svg">
  <path
    d="M22.4994 11.9899C22.5001 12.2572 22.4293 12.5197 22.2945 12.7505C22.1597 12.9812 21.9657 13.1718 21.7325 13.3024L5.99 22.3033C5.7641 22.4314 5.50905 22.4992 5.24938 22.5002C5.01012 22.4989 4.77464 22.4404 4.56259 22.3296C4.35055 22.2188 4.1681 22.0588 4.03046 21.8631C3.89283 21.6674 3.80401 21.4416 3.77142 21.2045C3.73883 20.9675 3.76342 20.7261 3.84313 20.5005L6.37438 13.0052C6.39912 12.9319 6.44591 12.8681 6.50834 12.8224C6.57077 12.7768 6.6458 12.7516 6.72313 12.7502H13.4994C13.6022 12.7504 13.704 12.7295 13.7983 12.6888C13.8927 12.648 13.9777 12.5883 14.0481 12.5133C14.1184 12.4383 14.1726 12.3496 14.2072 12.2528C14.2418 12.156 14.2562 12.0531 14.2494 11.9505C14.2324 11.7577 14.1431 11.5784 13.9995 11.4485C13.8559 11.3186 13.6686 11.2478 13.475 11.2502H6.725C6.64655 11.2502 6.57006 11.2256 6.50632 11.1799C6.44258 11.1341 6.3948 11.0695 6.36969 10.9952L3.83844 3.50084C3.73769 3.21358 3.72673 2.90247 3.807 2.60883C3.88728 2.3152 4.055 2.05293 4.28787 1.85689C4.52075 1.66084 4.80776 1.54028 5.11079 1.51124C5.41381 1.48219 5.7185 1.54603 5.98438 1.69428L21.7344 10.684C21.9662 10.8143 22.1592 11.0039 22.2937 11.2334C22.4281 11.4629 22.4991 11.7239 22.4994 11.9899Z"
    fill="currentColor"
  />
</svg>
